<svg width="195" height="34" viewBox="0 0 195 34" fill="none" xmlns="http://www.w3.org/2000/svg">
<circle cx="16.2835" cy="17.0818" r="16.2835" fill="#D7EC9B"/>
<circle cx="32.4851" cy="17" r="16.2835" fill="#B9DD53"/>
<circle cx="48.8503" cy="16.9182" r="16.2835" fill="#8BB90A"/>
<path d="M12.0816 23.1571C10.6467 23.1571 9.36369 22.7015 8.23252 21.7903C8.06494 21.6227 7.98115 21.4289 7.98115 21.209C7.98115 20.9786 8.04399 20.8005 8.16968 20.6748C8.29536 20.5387 8.45247 20.4653 8.641 20.4549C8.82952 20.4339 9.01282 20.4915 9.19087 20.6277C9.63077 20.9524 10.0864 21.209 10.5577 21.3975C11.0395 21.5756 11.5475 21.6646 12.0816 21.6646C12.8462 21.6646 13.548 21.4813 14.1869 21.1147C14.8258 20.7481 15.3495 20.2559 15.7579 19.6379C16.1769 19.0095 16.4387 18.2973 16.5435 17.5013H12.0659C11.8564 17.5013 11.6784 17.4332 11.5318 17.297C11.3956 17.1504 11.3275 16.9776 11.3275 16.7786C11.3275 16.5691 11.3956 16.3963 11.5318 16.2601C11.6784 16.124 11.8564 16.0559 12.0659 16.0559H16.512C16.3968 15.3018 16.1297 14.621 15.7108 14.0135C15.2918 13.406 14.7682 12.9295 14.1397 12.5838C13.5113 12.2277 12.8253 12.0497 12.0816 12.0497C11.4008 12.0497 10.8562 12.1387 10.4477 12.3167C10.0392 12.4948 9.63601 12.7514 9.238 13.0866C9.05995 13.2332 8.86618 13.3013 8.65671 13.2908C8.45771 13.2699 8.28489 13.1965 8.13826 13.0709C8.0021 12.9347 7.93402 12.7671 7.93402 12.5681C7.93402 12.432 7.95496 12.3167 7.99686 12.2225C8.03875 12.1282 8.12254 12.0287 8.24823 11.924C8.84524 11.4422 9.43177 11.0965 10.0078 10.8871C10.5944 10.6776 11.2856 10.5729 12.0816 10.5729C12.9405 10.5729 13.7365 10.7352 14.4697 11.0599C15.2028 11.3846 15.8417 11.835 16.3864 12.411C16.9415 12.9766 17.3709 13.6417 17.6746 14.4063C17.9888 15.1604 18.146 15.9773 18.146 16.8571C18.146 17.7474 17.9888 18.5748 17.6746 19.3394C17.3709 20.104 16.9415 20.7743 16.3864 21.3504C15.8417 21.916 15.2028 22.3611 14.4697 22.6858C13.7365 23 12.9405 23.1571 12.0816 23.1571ZM27.8291 23C27.5987 23 27.4049 22.9214 27.2478 22.7643C27.0907 22.6072 27.0122 22.4135 27.0122 22.183V11.5469C27.0122 11.306 27.0907 11.1123 27.2478 10.9656C27.4049 10.8085 27.5987 10.73 27.8291 10.73C28.07 10.73 28.2638 10.8085 28.4104 10.9656C28.5675 11.1123 28.6461 11.306 28.6461 11.5469V16.0559H30.2643L34.4904 10.997C34.6371 10.819 34.8256 10.73 35.056 10.73C35.2969 10.7195 35.4907 10.798 35.6373 10.9656C35.784 11.1332 35.852 11.3113 35.8416 11.4998C35.8416 11.6778 35.7682 11.8507 35.6216 12.0182L31.6468 16.6372L36.0301 21.7274C36.1767 21.895 36.2553 22.0731 36.2658 22.2616C36.2867 22.4397 36.2081 22.6177 36.0301 22.7958C35.8835 22.9424 35.6845 23.0105 35.4331 23C35.1817 23 34.9827 22.9162 34.8361 22.7486L30.3271 17.5013H28.6461V22.183C28.6461 22.4135 28.5675 22.6072 28.4104 22.7643C28.2638 22.9214 28.07 23 27.8291 23ZM49.8304 23.1571C48.9087 23.1571 48.0656 23.0052 47.301 22.7015C46.5364 22.3873 45.8766 21.9526 45.3215 21.3975C44.7768 20.8319 44.3527 20.1668 44.0489 19.4023C43.7452 18.6272 43.5933 17.7788 43.5933 16.8571C43.5933 15.9354 43.7452 15.0923 44.0489 14.3277C44.3527 13.5631 44.7768 12.9033 45.3215 12.3482C45.8766 11.7826 46.5364 11.3479 47.301 11.0442C48.0656 10.73 48.9087 10.5729 49.8304 10.5729C50.7521 10.5729 51.59 10.73 52.3441 11.0442C53.1087 11.3479 53.7686 11.7826 54.3237 12.3482C54.8788 12.9033 55.3082 13.5631 55.612 14.3277C55.9157 15.0923 56.0676 15.9354 56.0676 16.8571C56.0676 17.7788 55.9157 18.6272 55.612 19.4023C55.3082 20.1668 54.8788 20.8319 54.3237 21.3975C53.7686 21.9526 53.1087 22.3873 52.3441 22.7015C51.59 23.0052 50.7521 23.1571 49.8304 23.1571ZM49.8304 21.6803C50.7417 21.6803 51.5481 21.4708 52.2499 21.0519C52.9516 20.6225 53.5015 20.0464 53.8995 19.3237C54.2975 18.5905 54.4965 17.7683 54.4965 16.8571C54.4965 15.9459 54.2975 15.129 53.8995 14.4063C53.5015 13.6731 52.9516 13.097 52.2499 12.6781C51.5481 12.2591 50.7417 12.0497 49.8304 12.0497C48.9192 12.0497 48.1127 12.2591 47.411 12.6781C46.7093 13.097 46.1594 13.6731 45.7614 14.4063C45.3634 15.129 45.1644 15.9459 45.1644 16.8571C45.1644 17.7683 45.3634 18.5905 45.7614 19.3237C46.1594 20.0464 46.7093 20.6225 47.411 21.0519C48.1127 21.4708 48.9192 21.6803 49.8304 21.6803Z" fill="white"/>
<path d="M8.23252 21.7903L8.05574 21.9671L8.06523 21.9765L8.07569 21.985L8.23252 21.7903ZM8.16968 20.6748L8.34659 20.8517L8.35338 20.8444L8.16968 20.6748ZM8.641 20.4549L8.65489 20.7049L8.6686 20.7033L8.641 20.4549ZM9.19087 20.6277L9.03899 20.8263L9.04241 20.8288L9.19087 20.6277ZM10.5577 21.3975L10.4648 21.6297L10.471 21.632L10.5577 21.3975ZM14.1869 21.1147L14.3113 21.3316L14.3113 21.3316L14.1869 21.1147ZM15.7579 19.6379L15.5499 19.4992L15.5494 19.5001L15.7579 19.6379ZM16.5435 17.5013L16.7913 17.5339L16.8285 17.2513H16.5435V17.5013ZM11.5318 17.297L11.3486 17.4671L11.3549 17.4739L11.3616 17.4802L11.5318 17.297ZM11.5318 16.2601L11.3615 16.0768L11.355 16.0833L11.5318 16.2601ZM16.512 16.0559V16.3059H16.8031L16.7592 16.0181L16.512 16.0559ZM14.1397 12.5838L14.0165 12.8013L14.0193 12.8029L14.1397 12.5838ZM10.4477 12.3167L10.5476 12.5459L10.5476 12.5459L10.4477 12.3167ZM9.238 13.0866L9.39694 13.2796L9.39904 13.2778L9.238 13.0866ZM8.65671 13.2908L8.6305 13.5398L8.64422 13.5405L8.65671 13.2908ZM8.13826 13.0709L7.96148 13.2476L7.96827 13.2544L7.97556 13.2607L8.13826 13.0709ZM8.24823 11.924L8.09121 11.7294L8.08818 11.7319L8.24823 11.924ZM10.0078 10.8871L9.92374 10.6516L9.92239 10.6521L10.0078 10.8871ZM14.4697 11.0599L14.5709 10.8313L14.5709 10.8313L14.4697 11.0599ZM16.3864 12.411L16.2047 12.5828L16.2079 12.5861L16.3864 12.411ZM17.6746 14.4063L17.4423 14.4986L17.4439 14.5024L17.6746 14.4063ZM17.6746 19.3394L17.4434 19.2444L17.4423 19.2471L17.6746 19.3394ZM16.3864 21.3504L16.2063 21.1769L16.2063 21.177L16.3864 21.3504ZM14.4697 22.6858L14.5681 22.9156L14.5709 22.9144L14.4697 22.6858ZM12.0816 22.9071C10.7045 22.9071 9.47668 22.4715 8.38935 21.5956L8.07569 21.985C9.25069 22.9315 10.5889 23.4071 12.0816 23.4071V22.9071ZM8.4093 21.6135C8.28458 21.4888 8.23115 21.3572 8.23115 21.209H7.73115C7.73115 21.5007 7.84529 21.7566 8.05574 21.9671L8.4093 21.6135ZM8.23115 21.209C8.23115 21.0244 8.28039 20.9177 8.34645 20.8516L7.9929 20.498C7.80759 20.6834 7.73115 20.9328 7.73115 21.209H8.23115ZM8.35338 20.8444C8.43408 20.757 8.52982 20.7114 8.65486 20.7045L8.62713 20.2053C8.37512 20.2193 8.15665 20.3204 7.98598 20.5053L8.35338 20.8444ZM8.6686 20.7033C8.78169 20.6908 8.90219 20.7217 9.03901 20.8263L9.34273 20.4291C9.12344 20.2614 8.87736 20.1771 8.61339 20.2064L8.6686 20.7033ZM9.04241 20.8288C9.49814 21.1652 9.97229 21.4326 10.4649 21.6296L10.6505 21.1654C10.2005 20.9854 9.7634 20.7395 9.33933 20.4265L9.04241 20.8288ZM10.471 21.632C10.9817 21.8207 11.5191 21.9146 12.0816 21.9146V21.4146C11.5758 21.4146 11.0973 21.3304 10.6444 21.163L10.471 21.632ZM12.0816 21.9146C12.8881 21.9146 13.633 21.7207 14.3113 21.3316L14.0624 20.8979C13.4629 21.2419 12.8043 21.4146 12.0816 21.4146V21.9146ZM14.3113 21.3316C14.9842 20.9455 15.5366 20.4261 15.9665 19.7758L15.5494 19.5001C15.1623 20.0857 14.6673 20.5508 14.0624 20.8979L14.3113 21.3316ZM15.9659 19.7766C16.4074 19.1143 16.6819 18.3654 16.7913 17.5339L16.2956 17.4687C16.1955 18.2292 15.9463 18.9046 15.5499 19.4992L15.9659 19.7766ZM16.5435 17.2513H12.0659V17.7513H16.5435V17.2513ZM12.0659 17.2513C11.9163 17.2513 11.7999 17.2049 11.7019 17.1138L11.3616 17.4802C11.5569 17.6615 11.7966 17.7513 12.0659 17.7513V17.2513ZM11.715 17.1269C11.6215 17.0262 11.5775 16.9141 11.5775 16.7786H11.0775C11.0775 17.0411 11.1697 17.2746 11.3486 17.4671L11.715 17.1269ZM11.5775 16.7786C11.5775 16.629 11.6236 16.5218 11.7085 16.4369L11.355 16.0833C11.1676 16.2707 11.0775 16.5092 11.0775 16.7786H11.5775ZM11.7019 16.4433C11.7999 16.3523 11.9163 16.3059 12.0659 16.3059V15.8059C11.7966 15.8059 11.5569 15.8957 11.3616 16.0769L11.7019 16.4433ZM12.0659 16.3059H16.512V15.8059H12.0659V16.3059ZM16.7592 16.0181C16.6384 15.2279 16.3578 14.5113 15.9166 13.8716L15.505 14.1554C15.9017 14.7307 16.1552 15.3756 16.2649 16.0936L16.7592 16.0181ZM15.9166 13.8716C15.4762 13.2331 14.9237 12.7297 14.2602 12.3648L14.0193 12.8029C14.6126 13.1292 15.1074 13.579 15.505 14.1554L15.9166 13.8716ZM14.263 12.3663C13.5958 11.9883 12.8671 11.7997 12.0816 11.7997V12.2997C12.7834 12.2997 13.4268 12.4672 14.0165 12.8013L14.263 12.3663ZM12.0816 11.7997C11.3828 11.7997 10.8 11.8905 10.3478 12.0876L10.5476 12.5459C10.9124 12.3869 11.4189 12.2997 12.0816 12.2997V11.7997ZM10.3478 12.0876C9.91391 12.2767 9.4904 12.5472 9.07697 12.8953L9.39904 13.2778C9.78161 12.9556 10.1646 12.7129 10.5476 12.5459L10.3478 12.0876ZM9.07908 12.8936C8.9439 13.0049 8.81005 13.0482 8.66919 13.0411L8.64422 13.5405C8.92232 13.5544 9.17599 13.4615 9.39693 13.2796L9.07908 12.8936ZM8.68288 13.0422C8.53236 13.0263 8.40764 12.9725 8.30095 12.881L7.97556 13.2607C8.16213 13.4206 8.38305 13.5134 8.63054 13.5394L8.68288 13.0422ZM8.31503 12.8941C8.22748 12.8065 8.18402 12.7033 8.18402 12.5681H7.68402C7.68402 12.8309 7.77671 13.0629 7.96148 13.2476L8.31503 12.8941ZM8.18402 12.5681C8.18402 12.4563 8.20139 12.3778 8.22531 12.324L7.76841 12.1209C7.70854 12.2557 7.68402 12.4076 7.68402 12.5681H8.18402ZM8.22531 12.324C8.24514 12.2794 8.2966 12.2091 8.40828 12.116L8.08818 11.7319C7.94849 11.8483 7.83236 11.977 7.76841 12.1209L8.22531 12.324ZM8.40523 12.1185C8.98594 11.6499 9.54871 11.32 10.0933 11.122L9.92239 10.6521C9.31483 10.8731 8.70453 11.2345 8.09123 11.7294L8.40523 12.1185ZM10.0919 11.1225C10.6451 10.9249 11.3067 10.8229 12.0816 10.8229V10.3229C11.2646 10.3229 10.5436 10.4303 9.92374 10.6516L10.0919 11.1225ZM12.0816 10.8229C12.9081 10.8229 13.6694 10.9789 14.3684 11.2885L14.5709 10.8313C13.8036 10.4915 12.9728 10.3229 12.0816 10.3229V10.8229ZM14.3684 11.2885C15.0716 11.5999 15.6831 12.0311 16.2047 12.5828L16.568 12.2393C16.0003 11.6388 15.334 11.1693 14.5709 10.8313L14.3684 11.2885ZM16.2079 12.5861C16.7389 13.1271 17.1504 13.7637 17.4423 14.4986L17.907 14.314C17.5914 13.5197 17.1441 12.8261 16.5648 12.2359L16.2079 12.5861ZM17.4439 14.5024C17.7444 15.2238 17.896 16.0078 17.896 16.8571H18.396C18.396 15.9469 18.2333 15.097 17.9054 14.3101L17.4439 14.5024ZM17.896 16.8571C17.896 17.7173 17.7443 18.5122 17.4434 19.2444L17.9059 19.4344C18.2334 18.6374 18.396 17.7775 18.396 16.8571H17.896ZM17.4423 19.2471C17.1502 19.9824 16.7383 20.6249 16.2063 21.1769L16.5664 21.5239C17.1447 20.9237 17.5916 20.2256 17.907 19.4317L17.4423 19.2471ZM16.2063 21.177C15.6846 21.7187 15.0726 22.1453 14.3684 22.4572L14.5709 22.9144C15.333 22.5769 15.9989 22.1132 16.5664 21.5238L16.2063 21.177ZM14.3712 22.456C13.6715 22.7559 12.9093 22.9071 12.0816 22.9071V23.4071C12.9717 23.4071 13.8015 23.2441 14.5681 22.9156L14.3712 22.456ZM27.2478 22.7643L27.0711 22.9411L27.0711 22.9411L27.2478 22.7643ZM27.2478 10.9656L27.4185 11.1485L27.4246 11.1424L27.2478 10.9656ZM28.4104 10.9656L28.2277 11.1362L28.2335 11.1425L28.2398 11.1484L28.4104 10.9656ZM28.6461 16.0559H28.3961V16.3059H28.6461V16.0559ZM30.2643 16.0559V16.3059H30.3812L30.4561 16.2162L30.2643 16.0559ZM34.4904 10.997L34.6823 11.1573L34.6834 11.156L34.4904 10.997ZM35.056 10.73V10.9802L35.0669 10.9797L35.056 10.73ZM35.6373 10.9656L35.4492 11.1303L35.4492 11.1303L35.6373 10.9656ZM35.8416 11.4998L35.5916 11.4859V11.4998H35.8416ZM35.6216 12.0182L35.4335 11.8536L35.4321 11.8552L35.6216 12.0182ZM31.6468 16.6372L31.4573 16.4741L31.3169 16.6372L31.4574 16.8003L31.6468 16.6372ZM36.0301 21.7274L35.8406 21.8906L35.8419 21.8921L36.0301 21.7274ZM36.2658 22.2616L36.0161 22.2755L36.0166 22.2832L36.0175 22.2908L36.2658 22.2616ZM36.0301 22.7958L35.8533 22.619L35.8533 22.619L36.0301 22.7958ZM35.4331 23L35.4435 22.75H35.4331V23ZM34.8361 22.7486L34.6465 22.9116L34.6479 22.9133L34.8361 22.7486ZM30.3271 17.5013L30.5167 17.3383L30.4419 17.2513H30.3271V17.5013ZM28.6461 17.5013V17.2513H28.3961V17.5013H28.6461ZM28.4104 22.7643L28.2335 22.5875L28.2277 22.5938L28.4104 22.7643ZM27.8291 22.75C27.6623 22.75 27.5329 22.6959 27.4246 22.5876L27.0711 22.9411C27.2769 23.147 27.5351 23.25 27.8291 23.25V22.75ZM27.4246 22.5876C27.3163 22.4792 27.2622 22.3499 27.2622 22.183H26.7622C26.7622 22.477 26.8652 22.7352 27.0711 22.9411L27.4246 22.5876ZM27.2622 22.183V11.5469H26.7622V22.183H27.2622ZM27.2622 11.5469C27.2622 11.3661 27.3184 11.2418 27.4184 11.1484L27.0772 10.7829C26.8631 10.9827 26.7622 11.246 26.7622 11.5469H27.2622ZM27.4246 11.1424C27.5329 11.0341 27.6623 10.98 27.8291 10.98V10.48C27.5351 10.48 27.2769 10.583 27.0711 10.7889L27.4246 11.1424ZM27.8291 10.98C28.01 10.98 28.1343 11.0362 28.2277 11.1362L28.5932 10.795C28.3933 10.5809 28.1301 10.48 27.8291 10.48V10.98ZM28.2398 11.1484C28.3399 11.2418 28.3961 11.3661 28.3961 11.5469H28.8961C28.8961 11.246 28.7952 10.9827 28.581 10.7829L28.2398 11.1484ZM28.3961 11.5469V16.0559H28.8961V11.5469H28.3961ZM28.6461 16.3059H30.2643V15.8059H28.6461V16.3059ZM30.4561 16.2162L34.6823 11.1573L34.2986 10.8368L30.0724 15.8956L30.4561 16.2162ZM34.6834 11.156C34.7826 11.0355 34.9004 10.98 35.056 10.98V10.48C34.7508 10.48 34.4915 10.6025 34.2975 10.8381L34.6834 11.156ZM35.0669 10.9797C35.2392 10.9722 35.3571 11.025 35.4492 11.1303L35.8255 10.801C35.6243 10.5711 35.3547 10.4667 35.0452 10.4802L35.0669 10.9797ZM35.4492 11.1303C35.5611 11.2581 35.5982 11.3742 35.5919 11.4859L36.0912 11.5137C36.1059 11.2483 36.0069 11.0083 35.8255 10.801L35.4492 11.1303ZM35.5916 11.4998C35.5916 11.6032 35.5506 11.7198 35.4335 11.8536L35.8098 12.1829C35.9859 11.9815 36.0916 11.7525 36.0916 11.4998H35.5916ZM35.4321 11.8552L31.4573 16.4741L31.8363 16.8002L35.8111 12.1813L35.4321 11.8552ZM31.4574 16.8003L35.8406 21.8906L36.2195 21.5643L31.8363 16.474L31.4574 16.8003ZM35.8419 21.8921C35.9587 22.0255 36.0093 22.1522 36.0161 22.2755L36.5154 22.2477C36.5013 21.9939 36.3948 21.7646 36.2182 21.5628L35.8419 21.8921ZM36.0175 22.2908C36.0263 22.3655 36.0003 22.472 35.8533 22.619L36.2069 22.9725C36.416 22.7635 36.5471 22.5138 36.514 22.2324L36.0175 22.2908ZM35.8533 22.619C35.7665 22.7058 35.6411 22.7585 35.4435 22.7502L35.4227 23.2498C35.7278 23.2625 36.0004 23.179 36.2069 22.9725L35.8533 22.619ZM35.4331 22.75C35.2435 22.75 35.117 22.69 35.0242 22.584L34.6479 22.9133C34.8485 23.1424 35.12 23.25 35.4331 23.25V22.75ZM35.0257 22.5857L30.5167 17.3383L30.1375 17.6642L34.6465 22.9116L35.0257 22.5857ZM30.3271 17.2513H28.6461V17.7513H30.3271V17.2513ZM28.3961 17.5013V22.183H28.8961V17.5013H28.3961ZM28.3961 22.183C28.3961 22.3499 28.342 22.4792 28.2336 22.5876L28.5872 22.9411C28.7931 22.7352 28.8961 22.477 28.8961 22.183H28.3961ZM28.2277 22.5938C28.1343 22.6938 28.01 22.75 27.8291 22.75V23.25C28.1301 23.25 28.3933 23.1491 28.5932 22.9349L28.2277 22.5938ZM47.301 22.7015L47.206 22.9327L47.2087 22.9338L47.301 22.7015ZM45.3215 21.3975L45.1414 21.571L45.1447 21.5743L45.3215 21.3975ZM44.0489 19.4023L43.8161 19.4935L43.8166 19.4946L44.0489 19.4023ZM44.0489 14.3277L43.8166 14.2354L43.8166 14.2354L44.0489 14.3277ZM45.3215 12.3482L45.1431 12.173L45.143 12.1731L45.3215 12.3482ZM47.301 11.0442L47.3933 11.2765L47.3961 11.2754L47.301 11.0442ZM52.3441 11.0442L52.248 11.275L52.2518 11.2765L52.3441 11.0442ZM54.3237 12.3482L54.1453 12.5233L54.1469 12.5249L54.3237 12.3482ZM55.612 14.3277L55.8443 14.2354L55.8443 14.2354L55.612 14.3277ZM55.612 19.4023L55.8443 19.4946L55.8447 19.4935L55.612 19.4023ZM54.3237 21.3975L54.5005 21.5743L54.5021 21.5726L54.3237 21.3975ZM52.3441 22.7015L52.4376 22.9334L52.4392 22.9327L52.3441 22.7015ZM52.2499 21.0519L52.378 21.2665L52.3804 21.2651L52.2499 21.0519ZM53.8995 19.3237L54.1185 19.4443L54.1192 19.443L53.8995 19.3237ZM53.8995 14.4063L53.6798 14.5255L53.6805 14.5269L53.8995 14.4063ZM52.2499 12.6781L52.1217 12.8927L52.1217 12.8927L52.2499 12.6781ZM47.411 12.6781L47.5391 12.8927L47.5391 12.8927L47.411 12.6781ZM45.7614 14.4063L45.9804 14.5269L45.9811 14.5255L45.7614 14.4063ZM45.7614 19.3237L45.5417 19.443L45.5424 19.4443L45.7614 19.3237ZM47.411 21.0519L47.2805 21.2651L47.2828 21.2665L47.411 21.0519ZM49.8304 22.9071C48.9366 22.9071 48.1252 22.7599 47.3933 22.4692L47.2087 22.9338C48.006 23.2506 48.8809 23.4071 49.8304 23.4071V22.9071ZM47.3961 22.4703C46.6604 22.1679 46.0288 21.7512 45.4983 21.2207L45.1447 21.5743C45.7244 22.154 46.4125 22.6066 47.206 22.9327L47.3961 22.4703ZM45.5016 21.2241C44.9805 20.683 44.5736 20.0458 44.2813 19.31L43.8166 19.4946C44.1317 20.2878 44.5732 20.9808 45.1414 21.5709L45.5016 21.2241ZM44.2817 19.311C43.9905 18.568 43.8433 17.7509 43.8433 16.8571H43.3433C43.3433 17.8067 43.4999 18.6864 43.8161 19.4935L44.2817 19.311ZM43.8433 16.8571C43.8433 15.9633 43.9905 15.1519 44.2813 14.42L43.8166 14.2354C43.4998 15.0327 43.3433 15.9076 43.3433 16.8571H43.8433ZM44.2813 14.42C44.5734 13.6845 44.9799 13.0533 45.4999 12.5233L45.143 12.1731C44.5738 12.7533 44.1319 13.4417 43.8166 14.2354L44.2813 14.42ZM45.4999 12.5233C46.0297 11.9835 46.6599 11.5679 47.3933 11.2765L47.2087 10.8118C46.413 11.1279 45.7235 11.5816 45.1431 12.173L45.4999 12.5233ZM47.3961 11.2754C48.1272 10.9749 48.9376 10.8229 49.8304 10.8229V10.3229C48.8799 10.3229 48.004 10.485 47.206 10.8129L47.3961 11.2754ZM49.8304 10.8229C50.7233 10.8229 51.528 10.975 52.248 11.2749L52.4403 10.8134C51.6521 10.485 50.7809 10.3229 49.8304 10.3229V10.8229ZM52.2518 11.2765C52.9853 11.5679 53.6155 11.9835 54.1453 12.5233L54.5021 12.173C53.9217 11.5816 53.2321 11.1279 52.4364 10.8118L52.2518 11.2765ZM54.1469 12.5249C54.6768 13.0548 55.0878 13.6855 55.3796 14.42L55.8443 14.2354C55.5286 13.4407 55.0808 12.7517 54.5005 12.1714L54.1469 12.5249ZM55.3796 14.42C55.6704 15.1519 55.8176 15.9633 55.8176 16.8571H56.3176C56.3176 15.9076 56.161 15.0327 55.8443 14.2354L55.3796 14.42ZM55.8176 16.8571C55.8176 17.7509 55.6704 18.568 55.3792 19.311L55.8447 19.4935C56.161 18.6864 56.3176 17.8067 56.3176 16.8571H55.8176ZM55.3796 19.31C55.0877 20.0448 54.6762 20.6815 54.1453 21.2224L54.5021 21.5726C55.0814 20.9824 55.5288 20.2889 55.8443 19.4946L55.3796 19.31ZM54.1469 21.2207C53.6164 21.7512 52.9848 22.1679 52.2491 22.4703L52.4392 22.9327C53.2327 22.6066 53.9208 22.154 54.5005 21.5743L54.1469 21.2207ZM52.2507 22.4696C51.53 22.7599 50.7244 22.9071 49.8304 22.9071V23.4071C50.7799 23.4071 51.65 23.2506 52.4376 22.9334L52.2507 22.4696ZM49.8304 21.9303C50.7815 21.9303 51.6332 21.7112 52.378 21.2665L52.1217 20.8372C51.4631 21.2305 50.7019 21.4303 49.8304 21.4303V21.9303ZM52.3804 21.2651C53.1193 20.813 53.6996 20.2049 54.1185 19.4443L53.6805 19.2031C53.3034 19.8879 52.784 20.4319 52.1194 20.8386L52.3804 21.2651ZM54.1192 19.443C54.5389 18.6699 54.7465 17.8061 54.7465 16.8571H54.2465C54.2465 17.7306 54.0561 18.5112 53.6798 19.2044L54.1192 19.443ZM54.7465 16.8571C54.7465 15.9082 54.5389 15.049 54.1185 14.2857L53.6805 14.5269C54.0561 15.2089 54.2465 15.9836 54.2465 16.8571H54.7465ZM54.1192 14.287C53.7003 13.5152 53.1191 12.9059 52.378 12.4634L52.1217 12.8927C52.7841 13.2882 53.3027 13.8309 53.6798 14.5255L54.1192 14.287ZM52.378 12.4634C51.6332 12.0188 50.7815 11.7997 49.8304 11.7997V12.2997C50.7019 12.2997 51.4631 12.4995 52.1217 12.8927L52.378 12.4634ZM49.8304 11.7997C48.8794 11.7997 48.0277 12.0188 47.2828 12.4634L47.5391 12.8927C48.1978 12.4995 48.959 12.2997 49.8304 12.2997V11.7997ZM47.2828 12.4634C46.5417 12.9059 45.9606 13.5152 45.5417 14.287L45.9811 14.5255C46.3582 13.8309 46.8768 13.2882 47.5391 12.8927L47.2828 12.4634ZM45.5424 14.2857C45.122 15.049 44.9144 15.9082 44.9144 16.8571H45.4144C45.4144 15.9836 45.6048 15.2089 45.9804 14.5269L45.5424 14.2857ZM44.9144 16.8571C44.9144 17.8061 45.122 18.6699 45.5417 19.443L45.9811 19.2044C45.6048 18.5112 45.4144 17.7306 45.4144 16.8571H44.9144ZM45.5424 19.4443C45.9613 20.2049 46.5416 20.813 47.2805 21.2651L47.5415 20.8386C46.8769 20.4319 46.3575 19.8879 45.9804 19.2031L45.5424 19.4443ZM47.2828 21.2665C48.0277 21.7112 48.8794 21.9303 49.8304 21.9303V21.4303C48.959 21.4303 48.1978 21.2305 47.5391 20.8372L47.2828 21.2665Z" fill="white"/>
<path d="M81.1697 22C80.9393 22 80.7456 21.9214 80.5885 21.7643C80.4313 21.6072 80.3528 21.4135 80.3528 21.183V20.5546C79.3368 20.4604 78.4413 20.2037 77.6663 19.7848C76.9017 19.3658 76.2994 18.8212 75.8595 18.1509C75.4301 17.4701 75.2154 16.7055 75.2154 15.8571C75.2154 15.0088 75.4301 14.2494 75.8595 13.5791C76.2994 12.9088 76.9017 12.3641 77.6663 11.9452C78.4413 11.5262 79.3368 11.2696 80.3528 11.1753V10.5469C80.3528 10.306 80.4313 10.1123 80.5885 9.96563C80.7456 9.80852 80.9393 9.72997 81.1697 9.72997C81.4106 9.72997 81.6044 9.80852 81.751 9.96563C81.9082 10.1123 81.9867 10.306 81.9867 10.5469V11.1911C82.9922 11.2853 83.872 11.5419 84.6261 11.9609C85.3907 12.3798 85.9877 12.9245 86.4171 13.5948C86.8465 14.2651 87.0612 15.0192 87.0612 15.8571C87.0612 16.7055 86.8465 17.4649 86.4171 18.1352C85.9877 18.8055 85.3907 19.3501 84.6261 19.7691C83.872 20.188 82.9922 20.4446 81.9867 20.5389V21.183C81.9867 21.4135 81.9082 21.6072 81.751 21.7643C81.6044 21.9214 81.4106 22 81.1697 22ZM76.7865 15.8571C76.7865 16.4751 76.9383 17.025 77.2421 17.5067C77.5563 17.9885 77.9857 18.3761 78.5304 18.6693C79.075 18.9626 79.7087 19.1511 80.4313 19.2349V12.495C79.7087 12.5788 79.075 12.7674 78.5304 13.0606C77.9857 13.3539 77.5563 13.7414 77.2421 14.2232C76.9383 14.6945 76.7865 15.2392 76.7865 15.8571ZM85.4902 15.8571C85.4902 15.2496 85.3383 14.7102 85.0346 14.2389C84.7413 13.7571 84.3224 13.3696 83.7777 13.0763C83.2436 12.7831 82.6204 12.5945 81.9082 12.5108V19.2192C82.6204 19.1354 83.2436 18.9469 83.7777 18.6536C84.3224 18.3604 84.7413 17.9781 85.0346 17.5067C85.3383 17.025 85.4902 16.4751 85.4902 15.8571ZM97.5381 22C97.3076 22 97.1086 21.9214 96.9411 21.7643C96.7735 21.6072 96.6897 21.4135 96.6897 21.183V10.5469C96.6897 10.306 96.7735 10.1123 96.9411 9.96563C97.1086 9.80852 97.3076 9.72997 97.5381 9.72997C97.779 9.72997 97.9675 9.80852 98.1036 9.96563C98.2503 10.1123 98.3236 10.306 98.3236 10.5469V19.4549L105.865 10.0285C106.032 9.82947 106.242 9.72997 106.493 9.72997C106.734 9.72997 106.928 9.80852 107.074 9.96563C107.232 10.1123 107.31 10.306 107.31 10.5469V21.183C107.31 21.4135 107.232 21.6072 107.074 21.7643C106.928 21.9214 106.734 22 106.493 22C106.263 22 106.069 21.9214 105.912 21.7643C105.755 21.6072 105.676 21.4135 105.676 21.183V12.2908L98.1665 21.7172C98.0932 21.801 97.9989 21.8691 97.8837 21.9214C97.7685 21.9738 97.6533 22 97.5381 22ZM118.339 22C118.108 22 117.914 21.9214 117.757 21.7643C117.6 21.6072 117.522 21.4135 117.522 21.183V10.5469C117.522 10.306 117.6 10.1123 117.757 9.96563C117.914 9.80852 118.108 9.72997 118.339 9.72997C118.58 9.72997 118.773 9.80852 118.92 9.96563C119.077 10.1123 119.156 10.306 119.156 10.5469V15.0559H126.445V10.5469C126.445 10.306 126.524 10.1123 126.681 9.96563C126.838 9.80852 127.032 9.72997 127.262 9.72997C127.503 9.72997 127.697 9.80852 127.844 9.96563C127.99 10.1123 128.064 10.306 128.064 10.5469V21.183C128.064 21.4135 127.99 21.6072 127.844 21.7643C127.697 21.9214 127.503 22 127.262 22C127.032 22 126.838 21.9214 126.681 21.7643C126.524 21.6072 126.445 21.4135 126.445 21.183V16.5013H119.156V21.183C119.156 21.4135 119.077 21.6072 118.92 21.7643C118.773 21.9214 118.58 22 118.339 22ZM137.79 22C137.497 22 137.271 21.8743 137.114 21.6229C136.957 21.3716 136.942 21.1045 137.067 20.8217L141.482 10.2798C141.639 9.91326 141.896 9.72997 142.252 9.72997C142.629 9.72997 142.885 9.91326 143.022 10.2798L147.452 20.8531C147.567 21.1464 147.546 21.4135 147.389 21.6544C147.242 21.8848 147.017 22 146.714 22C146.556 22 146.405 21.9581 146.258 21.8743C146.122 21.7801 146.022 21.6544 145.959 21.4973L145.08 19.2978H139.44L138.544 21.4973C138.471 21.6648 138.361 21.7905 138.214 21.8743C138.078 21.9581 137.937 22 137.79 22ZM139.989 17.9466H144.53L142.283 12.3536L139.989 17.9466ZM157.21 22C156.98 22 156.786 21.9214 156.629 21.7643C156.472 21.6072 156.393 21.4135 156.393 21.183V10.5469C156.393 10.306 156.472 10.1123 156.629 9.96563C156.786 9.80852 156.98 9.72997 157.21 9.72997C157.451 9.72997 157.645 9.80852 157.792 9.96563C157.949 10.1123 158.027 10.306 158.027 10.5469V15.0559H165.317V10.5469C165.317 10.306 165.396 10.1123 165.553 9.96563C165.71 9.80852 165.903 9.72997 166.134 9.72997C166.375 9.72997 166.569 9.80852 166.715 9.96563C166.862 10.1123 166.935 10.306 166.935 10.5469V21.183C166.935 21.4135 166.862 21.6072 166.715 21.7643C166.569 21.9214 166.375 22 166.134 22C165.903 22 165.71 21.9214 165.553 21.7643C165.396 21.6072 165.317 21.4135 165.317 21.183V16.5013H158.027V21.183C158.027 21.4135 157.949 21.6072 157.792 21.7643C157.645 21.9214 157.451 22 157.21 22ZM182.647 22.1571C181.799 22.1571 181.003 22 180.259 21.6858C179.526 21.3611 178.882 20.916 178.327 20.3504C177.782 19.7743 177.353 19.104 177.039 18.3394C176.735 17.5748 176.583 16.7474 176.583 15.8571C176.583 14.9773 176.735 14.1604 177.039 13.4063C177.353 12.6417 177.782 11.9766 178.327 11.411C178.882 10.835 179.526 10.3846 180.259 10.0599C180.992 9.7352 181.788 9.57286 182.647 9.57286C183.454 9.57286 184.145 9.6776 184.721 9.88707C185.308 10.0965 185.894 10.4422 186.481 10.924C186.606 11.0287 186.69 11.1282 186.732 11.2225C186.774 11.3167 186.795 11.432 186.795 11.5681C186.795 11.7671 186.722 11.9347 186.575 12.0709C186.439 12.1965 186.271 12.2699 186.072 12.2908C185.873 12.3013 185.679 12.2332 185.491 12.0866C185.103 11.7514 184.7 11.4948 184.281 11.3167C183.873 11.1387 183.328 11.0497 182.647 11.0497C182.029 11.0497 181.448 11.1753 180.903 11.4267C180.359 11.6781 179.877 12.0237 179.458 12.4636C179.05 12.9035 178.73 13.4167 178.5 14.0033C178.269 14.5793 178.154 15.1973 178.154 15.8571C178.154 16.5275 178.269 17.1559 178.5 17.7424C178.73 18.3185 179.05 18.8264 179.458 19.2663C179.877 19.7062 180.359 20.0519 180.903 20.3032C181.448 20.5441 182.029 20.6646 182.647 20.6646C183.181 20.6646 183.684 20.5756 184.156 20.3975C184.637 20.209 185.098 19.9524 185.538 19.6277C185.727 19.4915 185.91 19.4339 186.088 19.4549C186.276 19.4653 186.434 19.5387 186.559 19.6748C186.685 19.8005 186.748 19.9786 186.748 20.209C186.748 20.4289 186.664 20.6227 186.496 20.7903C185.365 21.7015 184.082 22.1571 182.647 22.1571Z" fill="black"/>
<path d="M80.5885 21.7643L80.4117 21.9411L80.4117 21.9411L80.5885 21.7643ZM80.3528 20.5546H80.6028V20.3267L80.3759 20.3057L80.3528 20.5546ZM77.6663 19.7848L77.5461 20.004L77.5474 20.0047L77.6663 19.7848ZM75.8595 18.1509L75.6481 18.2843L75.6505 18.2881L75.8595 18.1509ZM75.8595 13.5791L75.6505 13.4419L75.649 13.4442L75.8595 13.5791ZM77.6663 11.9452L77.5474 11.7252L77.5461 11.7259L77.6663 11.9452ZM80.3528 11.1753L80.3759 11.4243L80.6028 11.4032V11.1753H80.3528ZM80.5885 9.96563L80.7591 10.1485L80.7652 10.1424L80.5885 9.96563ZM81.751 9.96563L81.5683 10.1362L81.5742 10.1425L81.5805 10.1484L81.751 9.96563ZM81.9867 11.1911H81.7367V11.4187L81.9634 11.44L81.9867 11.1911ZM84.6261 11.9609L84.5047 12.1794L84.506 12.1801L84.6261 11.9609ZM86.4171 13.5948L86.2066 13.7296L86.2066 13.7296L86.4171 13.5948ZM86.4171 18.1352L86.2066 18.0003L86.2066 18.0003L86.4171 18.1352ZM84.6261 19.7691L84.506 19.5498L84.5047 19.5505L84.6261 19.7691ZM81.9867 20.5389L81.9634 20.29L81.7367 20.3112V20.5389H81.9867ZM81.751 21.7643L81.5742 21.5875L81.5683 21.5938L81.751 21.7643ZM77.2421 17.5067L77.0306 17.6401L77.0327 17.6433L77.2421 17.5067ZM78.5304 18.6693L78.4118 18.8895L78.4118 18.8895L78.5304 18.6693ZM80.4313 19.2349L80.4026 19.4833L80.6813 19.5156V19.2349H80.4313ZM80.4313 12.495H80.6813V12.2144L80.4026 12.2467L80.4313 12.495ZM78.5304 13.0606L78.4118 12.8405L78.4118 12.8405L78.5304 13.0606ZM77.2421 14.2232L77.0327 14.0866L77.0319 14.0878L77.2421 14.2232ZM85.0346 14.2389L84.821 14.369L84.8244 14.3744L85.0346 14.2389ZM83.7777 13.0763L83.6574 13.2955L83.6592 13.2965L83.7777 13.0763ZM81.9082 12.5108L81.9374 12.2625L81.6582 12.2296V12.5108H81.9082ZM81.9082 19.2192H81.6582V19.5003L81.9374 19.4675L81.9082 19.2192ZM83.7777 18.6536L83.6592 18.4335L83.6574 18.4345L83.7777 18.6536ZM85.0346 17.5067L84.8231 17.3734L84.8223 17.3747L85.0346 17.5067ZM81.1697 21.75C81.0029 21.75 80.8735 21.6959 80.7652 21.5876L80.4117 21.9411C80.6176 22.147 80.8758 22.25 81.1697 22.25V21.75ZM80.7652 21.5876C80.6569 21.4792 80.6028 21.3499 80.6028 21.183H80.1028C80.1028 21.477 80.2058 21.7352 80.4117 21.9411L80.7652 21.5876ZM80.6028 21.183V20.5546H80.1028V21.183H80.6028ZM80.3759 20.3057C79.3882 20.214 78.5262 19.9655 77.7851 19.5649L77.5474 20.0047C78.3564 20.442 79.2854 20.7067 80.3297 20.8035L80.3759 20.3057ZM77.7864 19.5656C77.0545 19.1645 76.4841 18.6469 76.0686 18.0137L75.6505 18.2881C76.1148 18.9955 76.7489 19.5672 77.5461 20.004L77.7864 19.5656ZM76.071 18.0175C75.6681 17.3788 75.4654 16.661 75.4654 15.8571H74.9654C74.9654 16.75 75.1921 17.5613 75.6481 18.2843L76.071 18.0175ZM75.4654 15.8571C75.4654 15.0533 75.6681 14.3413 76.0701 13.7139L75.649 13.4442C75.1921 14.1575 74.9654 14.9642 74.9654 15.8571H75.4654ZM76.0686 13.7162C76.4841 13.0831 77.0545 12.5655 77.7864 12.1644L77.5461 11.7259C76.7489 12.1628 76.1148 12.7344 75.6505 13.4419L76.0686 13.7162ZM77.7851 12.1651C78.5262 11.7645 79.3882 11.5159 80.3759 11.4243L80.3297 10.9264C79.2854 11.0233 78.3564 11.2879 77.5474 11.7252L77.7851 12.1651ZM80.6028 11.1753V10.5469H80.1028V11.1753H80.6028ZM80.6028 10.5469C80.6028 10.3661 80.659 10.2418 80.759 10.1484L80.4179 9.78286C80.2037 9.98275 80.1028 10.246 80.1028 10.5469H80.6028ZM80.7652 10.1424C80.8735 10.0341 81.0029 9.97997 81.1697 9.97997V9.47997C80.8758 9.47997 80.6176 9.58295 80.4117 9.78885L80.7652 10.1424ZM81.1697 9.97997C81.3506 9.97997 81.4749 10.0362 81.5683 10.1362L81.9338 9.79505C81.7339 9.58089 81.4707 9.47997 81.1697 9.47997V9.97997ZM81.5805 10.1484C81.6805 10.2418 81.7367 10.3661 81.7367 10.5469H82.2367C82.2367 10.246 82.1358 9.98275 81.9216 9.78286L81.5805 10.1484ZM81.7367 10.5469V11.1911H82.2367V10.5469H81.7367ZM81.9634 11.44C82.9402 11.5315 83.7855 11.7799 84.5047 12.1794L84.7475 11.7423C83.9584 11.304 83.0442 11.0391 82.01 10.9422L81.9634 11.44ZM84.506 12.1801C85.2374 12.5809 85.8019 13.0979 86.2066 13.7296L86.6276 13.4599C86.1735 12.7511 85.544 12.1787 84.7462 11.7416L84.506 12.1801ZM86.2066 13.7296C86.6089 14.3576 86.8112 15.0644 86.8112 15.8571H87.3112C87.3112 14.9741 87.0842 14.1727 86.6276 13.4599L86.2066 13.7296ZM86.8112 15.8571C86.8112 16.661 86.6085 17.3729 86.2066 18.0003L86.6276 18.27C87.0845 17.5568 87.3112 16.75 87.3112 15.8571H86.8112ZM86.2066 18.0003C85.8019 18.6321 85.2374 19.149 84.506 19.5498L84.7462 19.9883C85.544 19.5512 86.1735 18.9789 86.6276 18.27L86.2066 18.0003ZM84.5047 19.5505C83.7855 19.9501 82.9402 20.1984 81.9634 20.29L82.01 20.7878C83.0442 20.6909 83.9584 20.426 84.7475 19.9876L84.5047 19.5505ZM81.7367 20.5389V21.183H82.2367V20.5389H81.7367ZM81.7367 21.183C81.7367 21.3499 81.6826 21.4792 81.5743 21.5876L81.9278 21.9411C82.1337 21.7352 82.2367 21.477 82.2367 21.183H81.7367ZM81.5683 21.5938C81.4749 21.6938 81.3506 21.75 81.1697 21.75V22.25C81.4707 22.25 81.7339 22.1491 81.9338 21.9349L81.5683 21.5938ZM76.5365 15.8571C76.5365 16.5181 76.6996 17.115 77.0306 17.6401L77.4536 17.3734C77.1771 16.9349 77.0365 16.4321 77.0365 15.8571H76.5365ZM77.0327 17.6433C77.3714 18.1627 77.8332 18.5779 78.4118 18.8895L78.6489 18.4492C78.1382 18.1742 77.7412 17.8143 77.4515 17.3702L77.0327 17.6433ZM78.4118 18.8895C78.9888 19.2001 79.6539 19.3965 80.4026 19.4833L80.4601 18.9866C79.7634 18.9058 79.1612 18.7251 78.6489 18.4492L78.4118 18.8895ZM80.6813 19.2349V12.495H80.1813V19.2349H80.6813ZM80.4026 12.2467C79.6539 12.3335 78.9888 12.5299 78.4118 12.8405L78.6489 13.2807C79.1612 13.0049 79.7634 12.8242 80.4601 12.7434L80.4026 12.2467ZM78.4118 12.8405C77.8332 13.1521 77.3714 13.5672 77.0327 14.0867L77.4515 14.3598C77.7412 13.9156 78.1382 13.5557 78.6489 13.2807L78.4118 12.8405ZM77.0319 14.0878C76.6996 14.6036 76.5365 15.1962 76.5365 15.8571H77.0365C77.0365 15.2821 77.1771 14.7855 77.4522 14.3586L77.0319 14.0878ZM85.7402 15.8571C85.7402 15.2058 85.5766 14.6186 85.2447 14.1035L84.8244 14.3744C85.1 14.8019 85.2402 15.2935 85.2402 15.8571H85.7402ZM85.2481 14.1089C84.9296 13.5856 84.4761 13.1685 83.8962 12.8562L83.6592 13.2965C84.1686 13.5708 84.5531 13.9287 84.821 14.3689L85.2481 14.1089ZM83.898 12.8572C83.3311 12.546 82.676 12.3494 81.9374 12.2625L81.8789 12.759C82.5648 12.8397 83.156 13.0202 83.6574 13.2955L83.898 12.8572ZM81.6582 12.5108V19.2192H82.1582V12.5108H81.6582ZM81.9374 19.4675C82.676 19.3806 83.3311 19.184 83.898 18.8728L83.6574 18.4345C83.156 18.7098 82.5648 18.8902 81.8789 18.9709L81.9374 19.4675ZM83.8962 18.8737C84.4748 18.5622 84.928 18.1513 85.2468 17.6388L84.8223 17.3747C84.5546 17.8049 84.1699 18.1585 83.6592 18.4335L83.8962 18.8737ZM85.2461 17.6401C85.5771 17.115 85.7402 16.5181 85.7402 15.8571H85.2402C85.2402 16.4321 85.0995 16.9349 84.8231 17.3734L85.2461 17.6401ZM96.9411 21.7643L97.112 21.582L97.112 21.582L96.9411 21.7643ZM96.9411 9.96563L97.1058 10.1539L97.112 10.148L96.9411 9.96563ZM98.1036 9.96563L97.9147 10.1294L97.9206 10.1361L97.9269 10.1424L98.1036 9.96563ZM98.3236 19.4549H98.0736V20.1676L98.5188 19.611L98.3236 19.4549ZM105.865 10.0285L105.673 9.86739L105.669 9.8723L105.865 10.0285ZM107.074 9.96563L106.892 10.1362L106.898 10.1425L106.904 10.1484L107.074 9.96563ZM107.074 21.7643L106.898 21.5875L106.892 21.5938L107.074 21.7643ZM105.676 12.2908H105.926V11.5758L105.481 12.135L105.676 12.2908ZM98.1665 21.7172L98.3548 21.882L98.362 21.873L98.1665 21.7172ZM97.8837 21.9214L97.9871 22.149L97.9871 22.149L97.8837 21.9214ZM97.5381 21.75C97.3709 21.75 97.2331 21.6955 97.112 21.582L96.7701 21.9467C96.9841 22.1474 97.2443 22.25 97.5381 22.25V21.75ZM97.112 21.582C96.995 21.4723 96.9397 21.3446 96.9397 21.183H96.4397C96.4397 21.4823 96.5519 21.7422 96.7701 21.9467L97.112 21.582ZM96.9397 21.183V10.5469H96.4397V21.183H96.9397ZM96.9397 10.5469C96.9397 10.3715 96.9972 10.2487 97.1057 10.1538L96.7764 9.77748C96.5498 9.9758 96.4397 10.2406 96.4397 10.5469H96.9397ZM97.112 10.148C97.2331 10.0345 97.3709 9.97997 97.5381 9.97997V9.47997C97.2443 9.47997 96.9841 9.58255 96.7701 9.78324L97.112 10.148ZM97.5381 9.97997C97.7192 9.97997 97.8338 10.036 97.9147 10.1294L98.2926 9.80189C98.1012 9.58105 97.8387 9.47997 97.5381 9.47997V9.97997ZM97.9269 10.1424C98.019 10.2345 98.0736 10.3607 98.0736 10.5469H98.5736C98.5736 10.2513 98.4815 9.98997 98.2804 9.78885L97.9269 10.1424ZM98.0736 10.5469V19.4549H98.5736V10.5469H98.0736ZM98.5188 19.611L106.06 10.1846L105.669 9.8723L98.1284 19.2987L98.5188 19.611ZM106.056 10.1895C106.178 10.0446 106.318 9.97997 106.493 9.97997V9.47997C106.165 9.47997 105.887 9.61429 105.673 9.86744L106.056 10.1895ZM106.493 9.97997C106.674 9.97997 106.798 10.0362 106.892 10.1362L107.257 9.79505C107.057 9.58089 106.794 9.47997 106.493 9.47997V9.97997ZM106.904 10.1484C107.004 10.2418 107.06 10.3661 107.06 10.5469H107.56C107.56 10.246 107.459 9.98275 107.245 9.78286L106.904 10.1484ZM107.06 10.5469V21.183H107.56V10.5469H107.06ZM107.06 21.183C107.06 21.3499 107.006 21.4792 106.898 21.5876L107.251 21.9411C107.457 21.7352 107.56 21.477 107.56 21.183H107.06ZM106.892 21.5938C106.798 21.6938 106.674 21.75 106.493 21.75V22.25C106.794 22.25 107.057 22.1491 107.257 21.9349L106.892 21.5938ZM106.493 21.75C106.326 21.75 106.197 21.6959 106.089 21.5876L105.735 21.9411C105.941 22.147 106.199 22.25 106.493 22.25V21.75ZM106.089 21.5876C105.98 21.4792 105.926 21.3499 105.926 21.183H105.426C105.426 21.477 105.529 21.7352 105.735 21.9411L106.089 21.5876ZM105.926 21.183V12.2908H105.426V21.183H105.926ZM105.481 12.135L97.9709 21.5614L98.362 21.873L105.872 12.4466L105.481 12.135ZM97.9783 21.5526C97.9315 21.6062 97.8675 21.6542 97.7802 21.6939L97.9871 22.149C98.1303 22.084 98.2549 21.9958 98.3546 21.8818L97.9783 21.5526ZM97.7802 21.6939C97.6943 21.7329 97.6142 21.75 97.5381 21.75V22.25C97.6923 22.25 97.8427 22.2147 97.9871 22.149L97.7802 21.6939ZM117.757 21.7643L117.581 21.9411L117.581 21.9411L117.757 21.7643ZM117.757 9.96563L117.928 10.1485L117.934 10.1424L117.757 9.96563ZM118.92 9.96563L118.737 10.1362L118.743 10.1425L118.749 10.1484L118.92 9.96563ZM119.156 15.0559H118.906V15.3059H119.156V15.0559ZM126.445 15.0559V15.3059H126.695V15.0559H126.445ZM126.681 9.96563L126.852 10.1485L126.858 10.1424L126.681 9.96563ZM127.844 9.96563L127.661 10.1363L127.667 10.1424L127.844 9.96563ZM126.445 16.5013H126.695V16.2513H126.445V16.5013ZM119.156 16.5013V16.2513H118.906V16.5013H119.156ZM118.92 21.7643L118.743 21.5875L118.737 21.5938L118.92 21.7643ZM118.339 21.75C118.172 21.75 118.042 21.6959 117.934 21.5876L117.581 21.9411C117.786 22.147 118.045 22.25 118.339 22.25V21.75ZM117.934 21.5876C117.826 21.4792 117.772 21.3499 117.772 21.183H117.272C117.272 21.477 117.375 21.7352 117.581 21.9411L117.934 21.5876ZM117.772 21.183V10.5469H117.272V21.183H117.772ZM117.772 10.5469C117.772 10.3661 117.828 10.2418 117.928 10.1484L117.587 9.78286C117.373 9.98275 117.272 10.246 117.272 10.5469H117.772ZM117.934 10.1424C118.042 10.0341 118.172 9.97997 118.339 9.97997V9.47997C118.045 9.47997 117.786 9.58295 117.581 9.78885L117.934 10.1424ZM118.339 9.97997C118.519 9.97997 118.644 10.0362 118.737 10.1362L119.103 9.79505C118.903 9.58089 118.64 9.47997 118.339 9.47997V9.97997ZM118.749 10.1484C118.849 10.2418 118.906 10.3661 118.906 10.5469H119.406C119.406 10.246 119.305 9.98275 119.09 9.78286L118.749 10.1484ZM118.906 10.5469V15.0559H119.406V10.5469H118.906ZM119.156 15.3059H126.445V14.8059H119.156V15.3059ZM126.695 15.0559V10.5469H126.195V15.0559H126.695ZM126.695 10.5469C126.695 10.3661 126.752 10.2418 126.852 10.1484L126.51 9.78286C126.296 9.98275 126.195 10.246 126.195 10.5469H126.695ZM126.858 10.1424C126.966 10.0341 127.095 9.97997 127.262 9.97997V9.47997C126.968 9.47997 126.71 9.58295 126.504 9.78885L126.858 10.1424ZM127.262 9.97997C127.443 9.97997 127.567 10.0362 127.661 10.1362L128.026 9.79505C127.826 9.58089 127.563 9.47997 127.262 9.47997V9.97997ZM127.667 10.1424C127.759 10.2345 127.814 10.3607 127.814 10.5469H128.314C128.314 10.2513 128.221 9.98997 128.02 9.78885L127.667 10.1424ZM127.814 10.5469V21.183H128.314V10.5469H127.814ZM127.814 21.183C127.814 21.3552 127.761 21.4865 127.661 21.5938L128.026 21.9349C128.219 21.728 128.314 21.4718 128.314 21.183H127.814ZM127.661 21.5938C127.567 21.6938 127.443 21.75 127.262 21.75V22.25C127.563 22.25 127.826 22.1491 128.026 21.9349L127.661 21.5938ZM127.262 21.75C127.095 21.75 126.966 21.6959 126.858 21.5876L126.504 21.9411C126.71 22.147 126.968 22.25 127.262 22.25V21.75ZM126.858 21.5876C126.749 21.4792 126.695 21.3499 126.695 21.183H126.195C126.195 21.477 126.298 21.7352 126.504 21.9411L126.858 21.5876ZM126.695 21.183V16.5013H126.195V21.183H126.695ZM126.445 16.2513H119.156V16.7513H126.445V16.2513ZM118.906 16.5013V21.183H119.406V16.5013H118.906ZM118.906 21.183C118.906 21.3499 118.851 21.4792 118.743 21.5876L119.097 21.9411C119.303 21.7352 119.406 21.477 119.406 21.183H118.906ZM118.737 21.5938C118.644 21.6938 118.519 21.75 118.339 21.75V22.25C118.64 22.25 118.903 22.1491 119.103 21.9349L118.737 21.5938ZM137.114 21.6229L136.902 21.7554L136.902 21.7554L137.114 21.6229ZM137.067 20.8217L137.296 20.9233L137.298 20.9183L137.067 20.8217ZM141.482 10.2798L141.252 10.1814L141.251 10.1833L141.482 10.2798ZM143.022 10.2798L142.787 10.367L142.791 10.3765L143.022 10.2798ZM147.452 20.8531L147.685 20.7617L147.683 20.7565L147.452 20.8531ZM147.389 21.6544L147.18 21.5178L147.178 21.5201L147.389 21.6544ZM146.258 21.8743L146.116 22.0799L146.125 22.086L146.134 22.0914L146.258 21.8743ZM145.959 21.4973L146.192 21.4044L146.192 21.4044L145.959 21.4973ZM145.08 19.2978L145.312 19.2049L145.249 19.0478H145.08V19.2978ZM139.44 19.2978V19.0478H139.271L139.208 19.2035L139.44 19.2978ZM138.544 21.4973L138.773 21.5975L138.776 21.5915L138.544 21.4973ZM138.214 21.8743L138.09 21.6571L138.083 21.6614L138.214 21.8743ZM139.989 17.9466L139.758 17.8518L139.617 18.1966H139.989V17.9466ZM144.53 17.9466V18.1966H144.9L144.762 17.8535L144.53 17.9466ZM142.283 12.3536L142.515 12.2605L142.286 11.6889L142.052 12.2588L142.283 12.3536ZM137.79 21.75C137.584 21.75 137.438 21.6697 137.326 21.4904L136.902 21.7554C137.105 22.0789 137.409 22.25 137.79 22.25V21.75ZM137.326 21.4904C137.216 21.3131 137.202 21.1341 137.296 20.9232L136.839 20.7202C136.681 21.0749 136.699 21.43 136.902 21.7554L137.326 21.4904ZM137.298 20.9183L141.712 10.3764L141.251 10.1833L136.837 20.7251L137.298 20.9183ZM141.712 10.3783C141.777 10.2261 141.855 10.1297 141.937 10.0709C142.018 10.0133 142.119 9.97997 142.252 9.97997V9.47997C142.029 9.47997 141.823 9.53823 141.647 9.664C141.473 9.78844 141.344 9.96702 141.252 10.1814L141.712 10.3783ZM142.252 9.97997C142.399 9.97997 142.504 10.0151 142.582 10.0709C142.661 10.1272 142.732 10.2191 142.787 10.3669L143.256 10.1928C143.175 9.97399 143.05 9.79098 142.872 9.664C142.694 9.53652 142.482 9.47997 142.252 9.47997V9.97997ZM142.791 10.3765L147.221 20.9497L147.683 20.7565L143.252 10.1832L142.791 10.3765ZM147.219 20.9445C147.308 21.1709 147.288 21.3519 147.18 21.5178L147.599 21.7909C147.805 21.4751 147.826 21.1219 147.685 20.7617L147.219 20.9445ZM147.178 21.5201C147.083 21.6694 146.943 21.75 146.714 21.75V22.25C147.091 22.25 147.402 22.1002 147.6 21.7886L147.178 21.5201ZM146.714 21.75C146.603 21.75 146.494 21.7211 146.382 21.6573L146.134 22.0914C146.315 22.1951 146.51 22.25 146.714 22.25V21.75ZM146.4 21.6688C146.305 21.6031 146.237 21.517 146.192 21.4044L145.727 21.5901C145.808 21.7917 145.938 21.957 146.116 22.0799L146.4 21.6688ZM146.192 21.4044L145.312 19.2049L144.848 19.3906L145.727 21.5901L146.192 21.4044ZM145.08 19.0478H139.44V19.5478H145.08V19.0478ZM139.208 19.2035L138.312 21.403L138.776 21.5915L139.671 19.392L139.208 19.2035ZM138.315 21.3971C138.261 21.5197 138.186 21.6024 138.09 21.6573L138.338 22.0914C138.535 21.9787 138.68 21.8099 138.773 21.5975L138.315 21.3971ZM138.083 21.6614C137.983 21.7232 137.886 21.75 137.79 21.75V22.25C137.987 22.25 138.173 22.193 138.345 22.0872L138.083 21.6614ZM139.989 18.1966H144.53V17.6966H139.989V18.1966ZM144.762 17.8535L142.515 12.2605L142.051 12.4468L144.298 18.0398L144.762 17.8535ZM142.052 12.2588L139.758 17.8518L140.221 18.0415L142.514 12.4485L142.052 12.2588ZM156.629 21.7643L156.452 21.9411L156.452 21.9411L156.629 21.7643ZM156.629 9.96563L156.8 10.1485L156.806 10.1424L156.629 9.96563ZM157.792 9.96563L157.609 10.1362L157.615 10.1425L157.621 10.1484L157.792 9.96563ZM158.027 15.0559H157.777V15.3059H158.027V15.0559ZM165.317 15.0559V15.3059H165.567V15.0559H165.317ZM165.553 9.96563L165.723 10.1485L165.729 10.1424L165.553 9.96563ZM166.715 9.96563L166.532 10.1363L166.538 10.1424L166.715 9.96563ZM165.317 16.5013H165.567V16.2513H165.317V16.5013ZM158.027 16.5013V16.2513H157.777V16.5013H158.027ZM157.792 21.7643L157.615 21.5875L157.609 21.5938L157.792 21.7643ZM157.21 21.75C157.043 21.75 156.914 21.6959 156.806 21.5876L156.452 21.9411C156.658 22.147 156.916 22.25 157.21 22.25V21.75ZM156.806 21.5876C156.697 21.4792 156.643 21.3499 156.643 21.183H156.143C156.143 21.477 156.246 21.7352 156.452 21.9411L156.806 21.5876ZM156.643 21.183V10.5469H156.143V21.183H156.643ZM156.643 10.5469C156.643 10.3661 156.699 10.2418 156.8 10.1484L156.458 9.78286C156.244 9.98275 156.143 10.246 156.143 10.5469H156.643ZM156.806 10.1424C156.914 10.0341 157.043 9.97997 157.21 9.97997V9.47997C156.916 9.47997 156.658 9.58295 156.452 9.78885L156.806 10.1424ZM157.21 9.97997C157.391 9.97997 157.515 10.0362 157.609 10.1362L157.974 9.79505C157.774 9.58089 157.511 9.47997 157.21 9.47997V9.97997ZM157.621 10.1484C157.721 10.2418 157.777 10.3661 157.777 10.5469H158.277C158.277 10.246 158.176 9.98275 157.962 9.78286L157.621 10.1484ZM157.777 10.5469V15.0559H158.277V10.5469H157.777ZM158.027 15.3059H165.317V14.8059H158.027V15.3059ZM165.567 15.0559V10.5469H165.067V15.0559H165.567ZM165.567 10.5469C165.567 10.3661 165.623 10.2418 165.723 10.1484L165.382 9.78286C165.168 9.98275 165.067 10.246 165.067 10.5469H165.567ZM165.729 10.1424C165.838 10.0341 165.967 9.97997 166.134 9.97997V9.47997C165.84 9.47997 165.582 9.58295 165.376 9.78885L165.729 10.1424ZM166.134 9.97997C166.315 9.97997 166.439 10.0362 166.532 10.1362L166.898 9.79505C166.698 9.58089 166.435 9.47997 166.134 9.47997V9.97997ZM166.538 10.1424C166.631 10.2345 166.685 10.3607 166.685 10.5469H167.185C167.185 10.2513 167.093 9.98997 166.892 9.78885L166.538 10.1424ZM166.685 10.5469V21.183H167.185V10.5469H166.685ZM166.685 21.183C166.685 21.3552 166.633 21.4865 166.532 21.5938L166.898 21.9349C167.091 21.728 167.185 21.4718 167.185 21.183H166.685ZM166.532 21.5938C166.439 21.6938 166.315 21.75 166.134 21.75V22.25C166.435 22.25 166.698 22.1491 166.898 21.9349L166.532 21.5938ZM166.134 21.75C165.967 21.75 165.838 21.6959 165.729 21.5876L165.376 21.9411C165.582 22.147 165.84 22.25 166.134 22.25V21.75ZM165.729 21.5876C165.621 21.4792 165.567 21.3499 165.567 21.183H165.067C165.067 21.477 165.17 21.7352 165.376 21.9411L165.729 21.5876ZM165.567 21.183V16.5013H165.067V21.183H165.567ZM165.317 16.2513H158.027V16.7513H165.317V16.2513ZM157.777 16.5013V21.183H158.277V16.5013H157.777ZM157.777 21.183C157.777 21.3499 157.723 21.4792 157.615 21.5876L157.968 21.9411C158.174 21.7352 158.277 21.477 158.277 21.183H157.777ZM157.609 21.5938C157.515 21.6938 157.391 21.75 157.21 21.75V22.25C157.511 22.25 157.774 22.1491 157.974 21.9349L157.609 21.5938ZM180.259 21.6858L180.158 21.9144L180.162 21.9161L180.259 21.6858ZM178.327 20.3504L178.145 20.5222L178.148 20.5255L178.327 20.3504ZM177.039 18.3394L176.806 18.4317L176.807 18.4344L177.039 18.3394ZM177.039 13.4063L176.807 13.3112L176.807 13.3129L177.039 13.4063ZM178.327 11.411L178.147 11.2375L178.147 11.2376L178.327 11.411ZM180.259 10.0599L180.158 9.8313L180.158 9.8313L180.259 10.0599ZM184.721 9.88707L184.636 10.122L184.637 10.1225L184.721 9.88707ZM186.481 10.924L186.641 10.7319L186.639 10.7308L186.481 10.924ZM186.575 12.0709L186.745 12.2546L186.745 12.2541L186.575 12.0709ZM186.072 12.2908L186.085 12.5408L186.098 12.5394L186.072 12.2908ZM185.491 12.0866L185.327 12.2759L185.337 12.2839L185.491 12.0866ZM184.281 11.3167L184.181 11.5459L184.183 11.5468L184.281 11.3167ZM179.458 12.4636L179.277 12.2912L179.275 12.2935L179.458 12.4636ZM178.5 14.0033L178.732 14.0961L178.732 14.0947L178.5 14.0033ZM178.5 17.7424L178.267 17.8338L178.268 17.8353L178.5 17.7424ZM179.458 19.2663L179.275 19.4365L179.277 19.4388L179.458 19.2663ZM180.903 20.3032L180.799 20.5303L180.802 20.5319L180.903 20.3032ZM184.156 20.3975L184.244 20.6314L184.247 20.6303L184.156 20.3975ZM185.538 19.6277L185.392 19.425L185.39 19.4265L185.538 19.6277ZM186.088 19.4549L186.059 19.7032L186.066 19.7041L186.074 19.7045L186.088 19.4549ZM186.559 19.6748L186.375 19.8445L186.382 19.8516L186.559 19.6748ZM186.496 20.7903L186.653 20.985L186.664 20.9765L186.673 20.9671L186.496 20.7903ZM182.647 21.9071C181.831 21.9071 181.068 21.756 180.357 21.4555L180.162 21.9161C180.938 22.244 181.767 22.4071 182.647 22.4071V21.9071ZM180.361 21.4572C179.656 21.1451 179.038 20.718 178.505 20.1753L178.148 20.5255C178.726 21.1139 179.396 21.5771 180.158 21.9144L180.361 21.4572ZM178.509 20.1786C177.986 19.6258 177.573 18.9818 177.27 18.2444L176.807 18.4344C177.133 19.2262 177.579 19.9228 178.145 20.5221L178.509 20.1786ZM177.271 18.2471C176.98 17.5142 176.833 16.7184 176.833 15.8571H176.333C176.333 16.7764 176.49 17.6354 176.806 18.4317L177.271 18.2471ZM176.833 15.8571C176.833 15.0067 176.98 14.2217 177.27 13.4997L176.807 13.3129C176.49 14.099 176.333 14.948 176.333 15.8571H176.833ZM177.27 13.5013C177.573 12.7643 177.985 12.1261 178.507 11.5844L178.147 11.2376C177.579 11.827 177.133 12.5191 176.807 13.3112L177.27 13.5013ZM178.507 11.5845C179.039 11.0318 179.657 10.6001 180.361 10.2885L180.158 9.8313C179.395 10.1691 178.724 10.6381 178.147 11.2375L178.507 11.5845ZM180.361 10.2885C181.06 9.9789 181.821 9.82286 182.647 9.82286V9.32286C181.756 9.32286 180.925 9.49151 180.158 9.8313L180.361 10.2885ZM182.647 9.82286C183.433 9.82286 184.094 9.92509 184.636 10.122L184.807 9.65213C184.196 9.4301 183.474 9.32286 182.647 9.32286V9.82286ZM184.637 10.1225C185.191 10.3204 185.753 10.6498 186.322 11.1172L186.639 10.7308C186.035 10.2346 185.424 9.87265 184.805 9.65164L184.637 10.1225ZM186.321 11.116C186.432 11.2091 186.484 11.2794 186.504 11.324L186.961 11.1209C186.897 10.977 186.78 10.8483 186.641 10.7319L186.321 11.116ZM186.504 11.324C186.528 11.3778 186.545 11.4563 186.545 11.5681H187.045C187.045 11.4076 187.02 11.2557 186.961 11.1209L186.504 11.324ZM186.545 11.5681C186.545 11.6972 186.501 11.7985 186.405 11.8877L186.745 12.2541C186.942 12.0709 187.045 11.8371 187.045 11.5681H186.545ZM186.405 11.8872C186.312 11.9733 186.196 12.0264 186.046 12.0422L186.098 12.5394C186.346 12.5133 186.566 12.4197 186.745 12.2546L186.405 11.8872ZM186.059 12.0412C185.932 12.0479 185.795 12.0066 185.644 11.8892L185.337 12.2839C185.564 12.4598 185.815 12.5547 186.085 12.5405L186.059 12.0412ZM185.654 11.8975C185.25 11.5474 184.825 11.2761 184.379 11.0867L184.183 11.5468C184.576 11.7135 184.957 11.9554 185.327 12.2757L185.654 11.8975ZM184.381 11.0876C183.929 10.8905 183.346 10.7997 182.647 10.7997V11.2997C183.31 11.2997 183.816 11.3869 184.181 11.5459L184.381 11.0876ZM182.647 10.7997C181.994 10.7997 181.377 10.9327 180.799 11.1997L181.008 11.6537C181.519 11.418 182.064 11.2997 182.647 11.2997V10.7997ZM180.799 11.1997C180.225 11.4645 179.717 11.8288 179.277 12.2912L179.639 12.636C180.037 12.2187 180.493 11.8917 181.008 11.6537L180.799 11.1997ZM179.275 12.2935C178.844 12.7574 178.508 13.2977 178.267 13.9119L178.732 14.0947C178.952 13.5358 179.255 13.0496 179.641 12.6337L179.275 12.2935ZM178.268 13.9104C178.025 14.5178 177.904 15.1675 177.904 15.8571H178.404C178.404 15.227 178.514 14.6408 178.732 14.0961L178.268 13.9104ZM177.904 15.8571C177.904 16.5567 178.024 17.2164 178.267 17.8338L178.732 17.651C178.514 17.0954 178.404 16.4982 178.404 15.8571H177.904ZM178.268 17.8353C178.509 18.4389 178.845 18.9733 179.275 19.4365L179.641 19.0962C179.254 18.6796 178.951 18.198 178.732 17.6496L178.268 17.8353ZM179.277 19.4388C179.717 19.9012 180.225 20.2655 180.799 20.5302L181.008 20.0763C180.493 19.8383 180.037 19.5113 179.639 19.0939L179.277 19.4388ZM180.802 20.5319C181.38 20.7874 181.996 20.9146 182.647 20.9146V20.4146C182.063 20.4146 181.516 20.3009 181.005 20.0746L180.802 20.5319ZM182.647 20.9146C183.21 20.9146 183.743 20.8207 184.244 20.6314L184.067 20.1636C183.626 20.3304 183.153 20.4146 182.647 20.4146V20.9146ZM184.247 20.6303C184.75 20.4334 185.23 20.1658 185.687 19.8288L185.39 19.4265C184.966 19.7389 184.525 19.9846 184.064 20.1647L184.247 20.6303ZM185.684 19.8304C185.838 19.7196 185.96 19.6915 186.059 19.7032L186.117 19.2066C185.86 19.1764 185.615 19.2634 185.392 19.425L185.684 19.8304ZM186.074 19.7045C186.199 19.7114 186.295 19.757 186.376 19.8444L186.743 19.5053C186.572 19.3204 186.354 19.2193 186.102 19.2053L186.074 19.7045ZM186.382 19.8516C186.449 19.9177 186.498 20.0244 186.498 20.209H186.998C186.998 19.9328 186.921 19.6834 186.736 19.498L186.382 19.8516ZM186.498 20.209C186.498 20.3572 186.444 20.4888 186.32 20.6135L186.673 20.9671C186.884 20.7566 186.998 20.5007 186.998 20.209H186.498ZM186.34 20.5956C185.252 21.4715 184.024 21.9071 182.647 21.9071V22.4071C184.14 22.4071 185.478 21.9315 186.653 20.985L186.34 20.5956Z" fill="black"/>
</svg>
